<mxfile host="app.diagrams.net" agent="Mozilla/5.0 (Windows NT 10.0; Win64; x64) AppleWebKit/537.36 (KHTML, like Gecko) Chrome/134.0.0.0 Safari/537.36" version="24.7.10">
  <diagram name="Page-1" id="BJSzDmZFji2vf-pK5XoB">
    <mxGraphModel dx="1050" dy="522" grid="1" gridSize="10" guides="1" tooltips="1" connect="1" arrows="1" fold="1" page="1" pageScale="1" pageWidth="850" pageHeight="1100" math="0" shadow="0">
      <root>
        <mxCell id="0" />
        <mxCell id="1" parent="0" />
        <mxCell id="narZ2vmZsy9vYnn69Pju-21" value="&lt;font style=&quot;font-size: 16px;&quot;&gt;Add car&lt;/font&gt;" style="rounded=0;whiteSpace=wrap;html=1;strokeWidth=2;dashed=1;dashPattern=8 8;fillColor=none;align=center;verticalAlign=top;" vertex="1" parent="1">
          <mxGeometry x="388" y="430" width="252" height="630" as="geometry" />
        </mxCell>
        <mxCell id="narZ2vmZsy9vYnn69Pju-1" value="Crash! Car simulation" style="text;html=1;align=center;verticalAlign=middle;whiteSpace=wrap;rounded=0;fontSize=16;fontStyle=1" vertex="1" parent="1">
          <mxGeometry x="100" y="40" width="180" height="30" as="geometry" />
        </mxCell>
        <mxCell id="narZ2vmZsy9vYnn69Pju-15" style="edgeStyle=orthogonalEdgeStyle;rounded=0;orthogonalLoop=1;jettySize=auto;html=1;exitX=1;exitY=0.5;exitDx=0;exitDy=0;entryX=0;entryY=0.5;entryDx=0;entryDy=0;" edge="1" parent="1" source="narZ2vmZsy9vYnn69Pju-2" target="narZ2vmZsy9vYnn69Pju-7">
          <mxGeometry relative="1" as="geometry" />
        </mxCell>
        <mxCell id="narZ2vmZsy9vYnn69Pju-2" value="" style="triangle;whiteSpace=wrap;html=1;" vertex="1" parent="1">
          <mxGeometry x="40" y="153" width="60" height="80" as="geometry" />
        </mxCell>
        <mxCell id="narZ2vmZsy9vYnn69Pju-3" value="start" style="text;html=1;align=center;verticalAlign=middle;whiteSpace=wrap;rounded=0;" vertex="1" parent="1">
          <mxGeometry x="70" y="120" width="60" height="30" as="geometry" />
        </mxCell>
        <mxCell id="narZ2vmZsy9vYnn69Pju-17" style="edgeStyle=orthogonalEdgeStyle;rounded=0;orthogonalLoop=1;jettySize=auto;html=1;exitX=1;exitY=0.5;exitDx=0;exitDy=0;" edge="1" parent="1" source="narZ2vmZsy9vYnn69Pju-4" target="narZ2vmZsy9vYnn69Pju-12">
          <mxGeometry relative="1" as="geometry" />
        </mxCell>
        <mxCell id="narZ2vmZsy9vYnn69Pju-27" style="edgeStyle=orthogonalEdgeStyle;rounded=0;orthogonalLoop=1;jettySize=auto;html=1;exitX=0.5;exitY=1;exitDx=0;exitDy=0;" edge="1" parent="1" source="narZ2vmZsy9vYnn69Pju-4" target="narZ2vmZsy9vYnn69Pju-23">
          <mxGeometry relative="1" as="geometry" />
        </mxCell>
        <mxCell id="narZ2vmZsy9vYnn69Pju-4" value="" style="rhombus;whiteSpace=wrap;html=1;" vertex="1" parent="1">
          <mxGeometry x="470" y="153" width="80" height="80" as="geometry" />
        </mxCell>
        <mxCell id="narZ2vmZsy9vYnn69Pju-5" value="prompt to define grid size H, W" style="text;html=1;align=center;verticalAlign=middle;whiteSpace=wrap;rounded=0;" vertex="1" parent="1">
          <mxGeometry x="270" y="120" width="130" height="30" as="geometry" />
        </mxCell>
        <mxCell id="narZ2vmZsy9vYnn69Pju-16" style="edgeStyle=orthogonalEdgeStyle;rounded=0;orthogonalLoop=1;jettySize=auto;html=1;exitX=1;exitY=0.5;exitDx=0;exitDy=0;entryX=0;entryY=0.5;entryDx=0;entryDy=0;" edge="1" parent="1" source="narZ2vmZsy9vYnn69Pju-7" target="narZ2vmZsy9vYnn69Pju-4">
          <mxGeometry relative="1" as="geometry" />
        </mxCell>
        <mxCell id="narZ2vmZsy9vYnn69Pju-7" value="User input:&lt;br&gt;grid&amp;nbsp; H, W" style="rounded=0;whiteSpace=wrap;html=1;" vertex="1" parent="1">
          <mxGeometry x="325" y="163" width="120" height="60" as="geometry" />
        </mxCell>
        <mxCell id="narZ2vmZsy9vYnn69Pju-9" value="input valid?" style="text;html=1;align=center;verticalAlign=middle;whiteSpace=wrap;rounded=0;" vertex="1" parent="1">
          <mxGeometry x="450" y="110" width="130" height="30" as="geometry" />
        </mxCell>
        <mxCell id="narZ2vmZsy9vYnn69Pju-10" value="N" style="text;html=1;align=center;verticalAlign=middle;whiteSpace=wrap;rounded=0;" vertex="1" parent="1">
          <mxGeometry x="560" y="150" width="50" height="30" as="geometry" />
        </mxCell>
        <mxCell id="narZ2vmZsy9vYnn69Pju-11" value="Y" style="text;html=1;align=center;verticalAlign=middle;whiteSpace=wrap;rounded=0;" vertex="1" parent="1">
          <mxGeometry x="450" y="250" width="50" height="30" as="geometry" />
        </mxCell>
        <mxCell id="narZ2vmZsy9vYnn69Pju-18" style="edgeStyle=orthogonalEdgeStyle;rounded=0;orthogonalLoop=1;jettySize=auto;html=1;exitX=0;exitY=0.5;exitDx=0;exitDy=0;entryX=0.75;entryY=0;entryDx=0;entryDy=0;" edge="1" parent="1" source="narZ2vmZsy9vYnn69Pju-12" target="narZ2vmZsy9vYnn69Pju-7">
          <mxGeometry relative="1" as="geometry" />
        </mxCell>
        <mxCell id="narZ2vmZsy9vYnn69Pju-12" value="invalid input notifcation" style="rounded=0;whiteSpace=wrap;html=1;" vertex="1" parent="1">
          <mxGeometry x="610" y="70" width="120" height="60" as="geometry" />
        </mxCell>
        <mxCell id="narZ2vmZsy9vYnn69Pju-14" value="1. all prompts have exit option&lt;div&gt;2. exception handling not shown&lt;/div&gt;" style="text;html=1;align=left;verticalAlign=middle;whiteSpace=wrap;rounded=0;" vertex="1" parent="1">
          <mxGeometry x="630" y="240" width="190" height="50" as="geometry" />
        </mxCell>
        <mxCell id="narZ2vmZsy9vYnn69Pju-58" style="edgeStyle=orthogonalEdgeStyle;rounded=0;orthogonalLoop=1;jettySize=auto;html=1;exitX=0.5;exitY=1;exitDx=0;exitDy=0;entryX=0.5;entryY=0;entryDx=0;entryDy=0;" edge="1" parent="1" source="narZ2vmZsy9vYnn69Pju-19" target="narZ2vmZsy9vYnn69Pju-48">
          <mxGeometry relative="1" as="geometry" />
        </mxCell>
        <mxCell id="narZ2vmZsy9vYnn69Pju-19" value="User input:&amp;nbsp;&lt;br&gt;Car n: name" style="rounded=0;whiteSpace=wrap;html=1;" vertex="1" parent="1">
          <mxGeometry x="430" y="480" width="120" height="60" as="geometry" />
        </mxCell>
        <mxCell id="narZ2vmZsy9vYnn69Pju-20" value="series of prompts to define and add a car" style="text;html=1;align=center;verticalAlign=middle;whiteSpace=wrap;rounded=0;" vertex="1" parent="1">
          <mxGeometry x="394" y="450" width="240" height="30" as="geometry" />
        </mxCell>
        <mxCell id="narZ2vmZsy9vYnn69Pju-22" value="notification grid created" style="text;html=1;align=center;verticalAlign=middle;whiteSpace=wrap;rounded=0;" vertex="1" parent="1">
          <mxGeometry x="445" y="370" width="130" height="30" as="geometry" />
        </mxCell>
        <mxCell id="narZ2vmZsy9vYnn69Pju-44" style="edgeStyle=orthogonalEdgeStyle;rounded=0;orthogonalLoop=1;jettySize=auto;html=1;exitX=0;exitY=0.5;exitDx=0;exitDy=0;entryX=0.5;entryY=0;entryDx=0;entryDy=0;" edge="1" parent="1" source="narZ2vmZsy9vYnn69Pju-23" target="narZ2vmZsy9vYnn69Pju-29">
          <mxGeometry relative="1" as="geometry">
            <Array as="points">
              <mxPoint x="255" y="330" />
            </Array>
          </mxGeometry>
        </mxCell>
        <mxCell id="narZ2vmZsy9vYnn69Pju-23" value="Method:&lt;br&gt;grid_create" style="rounded=0;whiteSpace=wrap;html=1;" vertex="1" parent="1">
          <mxGeometry x="450" y="300" width="120" height="60" as="geometry" />
        </mxCell>
        <mxCell id="narZ2vmZsy9vYnn69Pju-45" style="edgeStyle=orthogonalEdgeStyle;rounded=0;orthogonalLoop=1;jettySize=auto;html=1;exitX=0.5;exitY=1;exitDx=0;exitDy=0;entryX=0.5;entryY=0;entryDx=0;entryDy=0;" edge="1" parent="1" source="narZ2vmZsy9vYnn69Pju-29" target="narZ2vmZsy9vYnn69Pju-30">
          <mxGeometry relative="1" as="geometry" />
        </mxCell>
        <mxCell id="narZ2vmZsy9vYnn69Pju-29" value="User input:&amp;nbsp;&lt;br&gt;Navigate options" style="rounded=0;whiteSpace=wrap;html=1;" vertex="1" parent="1">
          <mxGeometry x="195" y="385" width="120" height="60" as="geometry" />
        </mxCell>
        <mxCell id="narZ2vmZsy9vYnn69Pju-39" style="edgeStyle=orthogonalEdgeStyle;rounded=0;orthogonalLoop=1;jettySize=auto;html=1;exitX=0.5;exitY=1;exitDx=0;exitDy=0;entryX=0.5;entryY=0;entryDx=0;entryDy=0;" edge="1" parent="1" source="narZ2vmZsy9vYnn69Pju-30" target="narZ2vmZsy9vYnn69Pju-80">
          <mxGeometry relative="1" as="geometry" />
        </mxCell>
        <mxCell id="narZ2vmZsy9vYnn69Pju-56" style="edgeStyle=orthogonalEdgeStyle;rounded=0;orthogonalLoop=1;jettySize=auto;html=1;exitX=1;exitY=0.5;exitDx=0;exitDy=0;entryX=0;entryY=0.5;entryDx=0;entryDy=0;" edge="1" parent="1" source="narZ2vmZsy9vYnn69Pju-30" target="narZ2vmZsy9vYnn69Pju-19">
          <mxGeometry relative="1" as="geometry" />
        </mxCell>
        <mxCell id="narZ2vmZsy9vYnn69Pju-30" value="" style="rhombus;whiteSpace=wrap;html=1;" vertex="1" parent="1">
          <mxGeometry x="215" y="470" width="80" height="80" as="geometry" />
        </mxCell>
        <mxCell id="narZ2vmZsy9vYnn69Pju-31" value="1 - Add car" style="text;html=1;align=center;verticalAlign=middle;whiteSpace=wrap;rounded=0;" vertex="1" parent="1">
          <mxGeometry x="308" y="470" width="80" height="30" as="geometry" />
        </mxCell>
        <mxCell id="narZ2vmZsy9vYnn69Pju-32" value="2 - Run simulation" style="text;html=1;align=center;verticalAlign=middle;whiteSpace=wrap;rounded=0;" vertex="1" parent="1">
          <mxGeometry x="258" y="550" width="130" height="30" as="geometry" />
        </mxCell>
        <mxCell id="narZ2vmZsy9vYnn69Pju-38" style="edgeStyle=orthogonalEdgeStyle;rounded=0;orthogonalLoop=1;jettySize=auto;html=1;exitX=0;exitY=0.5;exitDx=0;exitDy=0;entryX=0;entryY=0.5;entryDx=0;entryDy=0;" edge="1" parent="1" source="narZ2vmZsy9vYnn69Pju-34" target="narZ2vmZsy9vYnn69Pju-29">
          <mxGeometry relative="1" as="geometry">
            <Array as="points">
              <mxPoint x="228" y="665" />
              <mxPoint x="100" y="665" />
              <mxPoint x="100" y="415" />
            </Array>
          </mxGeometry>
        </mxCell>
        <mxCell id="narZ2vmZsy9vYnn69Pju-34" value="" style="rhombus;whiteSpace=wrap;html=1;" vertex="1" parent="1">
          <mxGeometry x="227.5" y="645" width="55" height="45" as="geometry" />
        </mxCell>
        <mxCell id="narZ2vmZsy9vYnn69Pju-35" value="Simulation defined at least 1 car?" style="text;html=1;align=center;verticalAlign=middle;whiteSpace=wrap;rounded=0;" vertex="1" parent="1">
          <mxGeometry x="258" y="630" width="130" height="30" as="geometry" />
        </mxCell>
        <mxCell id="narZ2vmZsy9vYnn69Pju-36" value="N" style="text;html=1;align=center;verticalAlign=middle;whiteSpace=wrap;rounded=0;" vertex="1" parent="1">
          <mxGeometry x="195" y="665" width="50" height="30" as="geometry" />
        </mxCell>
        <mxCell id="narZ2vmZsy9vYnn69Pju-37" value="Y" style="text;html=1;align=center;verticalAlign=middle;whiteSpace=wrap;rounded=0;" vertex="1" parent="1">
          <mxGeometry x="215" y="710" width="50" height="30" as="geometry" />
        </mxCell>
        <mxCell id="narZ2vmZsy9vYnn69Pju-40" value="Method:&lt;br&gt;run" style="rounded=0;whiteSpace=wrap;html=1;" vertex="1" parent="1">
          <mxGeometry x="188" y="750" width="120" height="60" as="geometry" />
        </mxCell>
        <mxCell id="narZ2vmZsy9vYnn69Pju-42" style="edgeStyle=orthogonalEdgeStyle;rounded=0;orthogonalLoop=1;jettySize=auto;html=1;exitX=0.5;exitY=1;exitDx=0;exitDy=0;entryX=0.56;entryY=0.04;entryDx=0;entryDy=0;entryPerimeter=0;" edge="1" parent="1" source="narZ2vmZsy9vYnn69Pju-34" target="narZ2vmZsy9vYnn69Pju-40">
          <mxGeometry relative="1" as="geometry" />
        </mxCell>
        <mxCell id="narZ2vmZsy9vYnn69Pju-43" value="prompt to add car or run simulation" style="text;html=1;align=center;verticalAlign=middle;whiteSpace=wrap;rounded=0;" vertex="1" parent="1">
          <mxGeometry x="270" y="350" width="130" height="30" as="geometry" />
        </mxCell>
        <mxCell id="narZ2vmZsy9vYnn69Pju-60" style="edgeStyle=orthogonalEdgeStyle;rounded=0;orthogonalLoop=1;jettySize=auto;html=1;exitX=0.5;exitY=1;exitDx=0;exitDy=0;entryX=0.5;entryY=0;entryDx=0;entryDy=0;" edge="1" parent="1" source="narZ2vmZsy9vYnn69Pju-46" target="narZ2vmZsy9vYnn69Pju-49">
          <mxGeometry relative="1" as="geometry" />
        </mxCell>
        <mxCell id="narZ2vmZsy9vYnn69Pju-46" value="User input:&amp;nbsp;&lt;br&gt;Car n: initial position" style="rounded=0;whiteSpace=wrap;html=1;" vertex="1" parent="1">
          <mxGeometry x="430" y="635" width="120" height="60" as="geometry" />
        </mxCell>
        <mxCell id="narZ2vmZsy9vYnn69Pju-62" style="edgeStyle=orthogonalEdgeStyle;rounded=0;orthogonalLoop=1;jettySize=auto;html=1;exitX=0.5;exitY=1;exitDx=0;exitDy=0;entryX=0.5;entryY=0;entryDx=0;entryDy=0;" edge="1" parent="1" source="narZ2vmZsy9vYnn69Pju-47" target="narZ2vmZsy9vYnn69Pju-50">
          <mxGeometry relative="1" as="geometry" />
        </mxCell>
        <mxCell id="narZ2vmZsy9vYnn69Pju-47" value="User input:&amp;nbsp;&lt;br&gt;Car n: commands" style="rounded=0;whiteSpace=wrap;html=1;" vertex="1" parent="1">
          <mxGeometry x="430" y="790" width="120" height="60" as="geometry" />
        </mxCell>
        <mxCell id="narZ2vmZsy9vYnn69Pju-53" style="edgeStyle=orthogonalEdgeStyle;rounded=0;orthogonalLoop=1;jettySize=auto;html=1;exitX=1;exitY=0.5;exitDx=0;exitDy=0;entryX=1;entryY=0.5;entryDx=0;entryDy=0;" edge="1" parent="1" source="narZ2vmZsy9vYnn69Pju-48" target="narZ2vmZsy9vYnn69Pju-19">
          <mxGeometry relative="1" as="geometry">
            <Array as="points">
              <mxPoint x="580" y="590" />
              <mxPoint x="580" y="510" />
            </Array>
          </mxGeometry>
        </mxCell>
        <mxCell id="narZ2vmZsy9vYnn69Pju-59" style="edgeStyle=orthogonalEdgeStyle;rounded=0;orthogonalLoop=1;jettySize=auto;html=1;exitX=0.5;exitY=1;exitDx=0;exitDy=0;entryX=0.5;entryY=0;entryDx=0;entryDy=0;" edge="1" parent="1" source="narZ2vmZsy9vYnn69Pju-48" target="narZ2vmZsy9vYnn69Pju-46">
          <mxGeometry relative="1" as="geometry" />
        </mxCell>
        <mxCell id="narZ2vmZsy9vYnn69Pju-48" value="" style="rhombus;whiteSpace=wrap;html=1;" vertex="1" parent="1">
          <mxGeometry x="470" y="570" width="40" height="40" as="geometry" />
        </mxCell>
        <mxCell id="narZ2vmZsy9vYnn69Pju-54" style="edgeStyle=orthogonalEdgeStyle;rounded=0;orthogonalLoop=1;jettySize=auto;html=1;exitX=1;exitY=0.5;exitDx=0;exitDy=0;entryX=1;entryY=0.5;entryDx=0;entryDy=0;" edge="1" parent="1" source="narZ2vmZsy9vYnn69Pju-49" target="narZ2vmZsy9vYnn69Pju-46">
          <mxGeometry relative="1" as="geometry">
            <Array as="points">
              <mxPoint x="580" y="740" />
              <mxPoint x="580" y="665" />
            </Array>
          </mxGeometry>
        </mxCell>
        <mxCell id="narZ2vmZsy9vYnn69Pju-61" style="edgeStyle=orthogonalEdgeStyle;rounded=0;orthogonalLoop=1;jettySize=auto;html=1;exitX=0.5;exitY=1;exitDx=0;exitDy=0;entryX=0.5;entryY=0;entryDx=0;entryDy=0;" edge="1" parent="1" source="narZ2vmZsy9vYnn69Pju-49" target="narZ2vmZsy9vYnn69Pju-47">
          <mxGeometry relative="1" as="geometry" />
        </mxCell>
        <mxCell id="narZ2vmZsy9vYnn69Pju-49" value="" style="rhombus;whiteSpace=wrap;html=1;" vertex="1" parent="1">
          <mxGeometry x="470" y="720" width="40" height="40" as="geometry" />
        </mxCell>
        <mxCell id="narZ2vmZsy9vYnn69Pju-55" style="edgeStyle=orthogonalEdgeStyle;rounded=0;orthogonalLoop=1;jettySize=auto;html=1;exitX=1;exitY=0.5;exitDx=0;exitDy=0;entryX=1;entryY=0.5;entryDx=0;entryDy=0;" edge="1" parent="1" source="narZ2vmZsy9vYnn69Pju-50" target="narZ2vmZsy9vYnn69Pju-47">
          <mxGeometry relative="1" as="geometry">
            <Array as="points">
              <mxPoint x="580" y="890" />
              <mxPoint x="580" y="820" />
            </Array>
          </mxGeometry>
        </mxCell>
        <mxCell id="narZ2vmZsy9vYnn69Pju-63" style="edgeStyle=orthogonalEdgeStyle;rounded=0;orthogonalLoop=1;jettySize=auto;html=1;exitX=0.5;exitY=1;exitDx=0;exitDy=0;entryX=0.5;entryY=0;entryDx=0;entryDy=0;" edge="1" parent="1" source="narZ2vmZsy9vYnn69Pju-50" target="narZ2vmZsy9vYnn69Pju-51">
          <mxGeometry relative="1" as="geometry" />
        </mxCell>
        <mxCell id="narZ2vmZsy9vYnn69Pju-50" value="" style="rhombus;whiteSpace=wrap;html=1;" vertex="1" parent="1">
          <mxGeometry x="470" y="870" width="40" height="40" as="geometry" />
        </mxCell>
        <mxCell id="narZ2vmZsy9vYnn69Pju-52" style="edgeStyle=orthogonalEdgeStyle;rounded=0;orthogonalLoop=1;jettySize=auto;html=1;exitX=0.5;exitY=1;exitDx=0;exitDy=0;entryX=1;entryY=0.5;entryDx=0;entryDy=0;" edge="1" parent="1" source="narZ2vmZsy9vYnn69Pju-51" target="narZ2vmZsy9vYnn69Pju-29">
          <mxGeometry relative="1" as="geometry">
            <mxPoint x="740" y="570" as="targetPoint" />
            <Array as="points">
              <mxPoint x="490" y="1030" />
              <mxPoint x="730" y="1030" />
              <mxPoint x="730" y="415" />
            </Array>
          </mxGeometry>
        </mxCell>
        <mxCell id="narZ2vmZsy9vYnn69Pju-51" value="Method:&lt;br&gt;car_add" style="rounded=0;whiteSpace=wrap;html=1;" vertex="1" parent="1">
          <mxGeometry x="430" y="940" width="120" height="60" as="geometry" />
        </mxCell>
        <mxCell id="narZ2vmZsy9vYnn69Pju-64" value="validation" style="text;html=1;align=center;verticalAlign=middle;whiteSpace=wrap;rounded=0;" vertex="1" parent="1">
          <mxGeometry x="470" y="590" width="130" height="30" as="geometry" />
        </mxCell>
        <mxCell id="narZ2vmZsy9vYnn69Pju-66" value="validation" style="text;html=1;align=center;verticalAlign=middle;whiteSpace=wrap;rounded=0;" vertex="1" parent="1">
          <mxGeometry x="470" y="740" width="130" height="30" as="geometry" />
        </mxCell>
        <mxCell id="narZ2vmZsy9vYnn69Pju-67" value="validation" style="text;html=1;align=center;verticalAlign=middle;whiteSpace=wrap;rounded=0;" vertex="1" parent="1">
          <mxGeometry x="470" y="890" width="130" height="30" as="geometry" />
        </mxCell>
        <mxCell id="narZ2vmZsy9vYnn69Pju-72" style="edgeStyle=orthogonalEdgeStyle;rounded=0;orthogonalLoop=1;jettySize=auto;html=1;exitX=1;exitY=0.5;exitDx=0;exitDy=0;" edge="1" parent="1" source="narZ2vmZsy9vYnn69Pju-69" target="narZ2vmZsy9vYnn69Pju-7">
          <mxGeometry relative="1" as="geometry" />
        </mxCell>
        <mxCell id="narZ2vmZsy9vYnn69Pju-78" style="edgeStyle=orthogonalEdgeStyle;rounded=0;orthogonalLoop=1;jettySize=auto;html=1;exitX=0.5;exitY=1;exitDx=0;exitDy=0;entryX=0;entryY=0.5;entryDx=0;entryDy=0;" edge="1" parent="1" source="narZ2vmZsy9vYnn69Pju-69" target="narZ2vmZsy9vYnn69Pju-80">
          <mxGeometry relative="1" as="geometry">
            <mxPoint x="50" y="530" as="targetPoint" />
            <Array as="points">
              <mxPoint x="155" y="605" />
            </Array>
          </mxGeometry>
        </mxCell>
        <mxCell id="narZ2vmZsy9vYnn69Pju-69" value="" style="rhombus;whiteSpace=wrap;html=1;" vertex="1" parent="1">
          <mxGeometry x="130" y="280" width="50" height="50" as="geometry" />
        </mxCell>
        <mxCell id="narZ2vmZsy9vYnn69Pju-70" value="grid defined?" style="text;html=1;align=center;verticalAlign=middle;whiteSpace=wrap;rounded=0;" vertex="1" parent="1">
          <mxGeometry x="147.5" y="240" width="115" height="30" as="geometry" />
        </mxCell>
        <mxCell id="narZ2vmZsy9vYnn69Pju-73" value="N" style="text;html=1;align=center;verticalAlign=middle;whiteSpace=wrap;rounded=0;" vertex="1" parent="1">
          <mxGeometry x="170" y="270" width="50" height="30" as="geometry" />
        </mxCell>
        <mxCell id="narZ2vmZsy9vYnn69Pju-76" style="edgeStyle=orthogonalEdgeStyle;rounded=0;orthogonalLoop=1;jettySize=auto;html=1;exitX=1;exitY=0.5;exitDx=0;exitDy=0;entryX=0;entryY=0.5;entryDx=0;entryDy=0;" edge="1" parent="1" source="narZ2vmZsy9vYnn69Pju-74" target="narZ2vmZsy9vYnn69Pju-69">
          <mxGeometry relative="1" as="geometry" />
        </mxCell>
        <mxCell id="narZ2vmZsy9vYnn69Pju-74" value="" style="triangle;whiteSpace=wrap;html=1;" vertex="1" parent="1">
          <mxGeometry x="40" y="265" width="60" height="80" as="geometry" />
        </mxCell>
        <mxCell id="narZ2vmZsy9vYnn69Pju-75" value="run" style="text;html=1;align=center;verticalAlign=middle;whiteSpace=wrap;rounded=0;" vertex="1" parent="1">
          <mxGeometry x="60" y="240" width="60" height="30" as="geometry" />
        </mxCell>
        <mxCell id="narZ2vmZsy9vYnn69Pju-77" value="Y" style="text;html=1;align=center;verticalAlign=middle;whiteSpace=wrap;rounded=0;" vertex="1" parent="1">
          <mxGeometry x="97.5" y="330" width="50" height="30" as="geometry" />
        </mxCell>
        <mxCell id="narZ2vmZsy9vYnn69Pju-82" style="edgeStyle=orthogonalEdgeStyle;rounded=0;orthogonalLoop=1;jettySize=auto;html=1;exitX=0.5;exitY=1;exitDx=0;exitDy=0;entryX=0.5;entryY=0;entryDx=0;entryDy=0;" edge="1" parent="1" source="narZ2vmZsy9vYnn69Pju-80" target="narZ2vmZsy9vYnn69Pju-34">
          <mxGeometry relative="1" as="geometry" />
        </mxCell>
        <mxCell id="narZ2vmZsy9vYnn69Pju-80" value="" style="ellipse;whiteSpace=wrap;html=1;aspect=fixed;" vertex="1" parent="1">
          <mxGeometry x="245" y="595" width="20" height="20" as="geometry" />
        </mxCell>
        <mxCell id="narZ2vmZsy9vYnn69Pju-83" value="notification to add a car" style="text;html=1;align=center;verticalAlign=middle;whiteSpace=wrap;rounded=0;" vertex="1" parent="1">
          <mxGeometry x="110" y="630" width="130" height="30" as="geometry" />
        </mxCell>
      </root>
    </mxGraphModel>
  </diagram>
</mxfile>
